<?xml version="1.0" encoding="utf-8"?>
<!-- Generator: Adobe Illustrator 28.1.0, SVG Export Plug-In . SVG Version: 6.00 Build 0)  -->
<svg version="1.1" id="Camada_1" xmlns="http://www.w3.org/2000/svg" xmlns:xlink="http://www.w3.org/1999/xlink" x="0px" y="0px"
	 viewBox="0 0 397.4 397.4" style="enable-background:new 0 0 397.4 397.4;" xml:space="preserve">
<style type="text/css">
	.st0{fill:#111114;}
	.st1{fill:#FFFFFF;}
</style>
<g>
	<path class="st0" d="M397.4,198.7c0,109.7-89,198.7-198.7,198.7h0C89,397.4,0,308.4,0,198.7v0C0,89,89,0,198.7,0h0
		C308.4,0,397.4,89,397.4,198.7L397.4,198.7z"/>
	<path class="st1" d="M252.6,94.5H144.8c-27.8,0-50.3,22.5-50.3,50.3v107.8c0,27.8,22.5,50.3,50.3,50.3h107.8
		c27.8,0,50.3-22.5,50.3-50.3V144.8C302.9,117,280.4,94.5,252.6,94.5z M284.9,249c0,19.8-16.1,35.9-35.9,35.9H148.4
		c-19.8,0-35.9-16.1-35.9-35.9V148.4c0-19.8,16.1-35.9,35.9-35.9H249c19.8,0,35.9,16.1,35.9,35.9V249z"/>
	<path class="st1" d="M198.8,144.8c-29.8,0-53.9,24.1-53.9,53.9c0,29.8,24.1,53.9,53.9,53.9s53.9-24.1,53.9-53.9
		C252.7,168.9,228.5,144.8,198.8,144.8z M198.8,234.6c-19.8,0-35.9-16.1-35.9-35.9s16.1-35.9,35.9-35.9s35.9,16.1,35.9,35.9
		S218.6,234.6,198.8,234.6z"/>
	<circle class="st1" cx="256.3" cy="141.2" r="10.8"/>
</g>
</svg>
