<?xml version="1.0" encoding="utf-8"?>
<!-- Generator: Adobe Illustrator 28.1.0, SVG Export Plug-In . SVG Version: 6.00 Build 0)  -->
<svg version="1.1" id="Camada_1" xmlns="http://www.w3.org/2000/svg" xmlns:xlink="http://www.w3.org/1999/xlink" x="0px" y="0px"
	 viewBox="0 0 500 500" style="enable-background:new 0 0 500 500;" xml:space="preserve">
<style type="text/css">
	.st0{display:none;fill:#FBE6C6;}
	.st1{fill:none;}
	.st2{fill:#FA8427;}
	.st3{fill:#FBC53D;}
	.st4{fill:#FDF6EE;}
	.st5{fill:#5AB0A4;}
	.st6{fill:#5B2E1A;}
	.st7{font-family:'MingLiU-ExtB';}
	.st8{font-size:24px;}
	.st9{font-size:12px;}
	.st10{font-size:21px;}
</style>
<rect y="1.6" class="st0" width="500" height="500"/>
<rect x="108" y="143.9" class="st1" width="251" height="195"/>
<g>
	<g>
		<path class="st2" d="M158.9,272.5c2.4,2,5.3,2.2,8.1,2.7c0-0.2,0.1-0.3,0-0.4s-0.2-0.2-0.4-0.2C164,274.3,161.4,273.7,158.9,272.5
			c-0.6-0.7-1.4-1.4-1.8-2.2c-1.2-2-0.4-3.8,1.9-4.1c1.6-0.2,3.2-0.2,4.9-0.1c6.4,0.4,12.8,0.7,19.2,0.3c4.8-0.2,9.6-0.5,14.5-0.8
			c1.1-0.1,2.2-0.4,3.5-0.7c-1-1-2-1.5-3.2-1.4c-7.3,0.3-14.6,0.5-22,0.8c-6.3,0.2-12.6,0.5-19,0.8c-1,0-1.9,0.2-2.9,0.2
			c-0.6,0-0.9,0.3-1.1,0.8c-0.2,0.5,0,0.9,0.3,1.2c0.7,0.8,1.4,1.7,2.2,2.4C156.6,270.7,157.8,271.6,158.9,272.5z"/>
		<path class="st3" d="M158.5,193.7c0,0.9,0,1.7,0,2.5c0,7.9,0.8,15.7,0.3,23.6c0,0.5,0,1.1,0,1.6c0,2.5,0.1,4.9,0.1,7.4
			c-0.1,5.2-0.3,10.5-0.3,15.7c0,5.4,0.1,10.8,0.2,16.1c0,0.3,0.1,0.6,0.1,1c13.6-0.5,27.1-1.1,40.8-1.6
			c-0.4-22.8-0.8-45.4-1.2-68.2C185.1,191.5,171.8,191.9,158.5,193.7z"/>
		<path class="st2" d="M155.6,194c-1.1,0.2-2.2,0.4-3.2,0.7c-0.7,0.2-1.3,0.6-1.9,0.9c-0.7,0.4-0.9,0.9-0.9,1.7
			c-0.1,10.5-0.1,21-0.2,31.5c0,4.2,0.1,8.5,0,12.7c-0.1,5.6-0.2,11.2-0.3,16.7c0,1.5,0.3,3,0.8,4.4c2.3-0.3,4.4-0.6,6.6-0.9
			c0-0.3,0-0.5,0-0.6c-0.1-6.1-0.3-12.2-0.3-18.2c0-5.2,0.4-10.5,0.1-15.7c-0.1-3.3,0.1-6.7,0-10c-0.1-7.6-0.3-15.2-0.4-22.7
			C155.7,194.4,155.7,194.3,155.6,194z"/>
		<path class="st4" d="M205.6,202.1c0,0.6,0,1,0,1.4c0.1,2.2,0.2,4.4,0.2,6.6c0.1,7.1,0.2,14.2,0.3,21.2c0,2.6,0,5.2,0,7.8
			c0,8.6,0.2,17.2-0.8,25.8c0,0.3,0,0.6,0.2,0.8c0.8,1,1.6,1.9,2.6,3c0-0.5,0-0.8,0.1-1c0.2-13.2,0.4-26.4,0.6-39.6
			c0-1.6,0-3.2,0.1-4.9c0.3-5.8,0.2-11.7-0.1-17.5c0-0.4-0.1-0.8-0.3-1C207.5,203.8,206.6,203.1,205.6,202.1z"/>
		<path class="st2" d="M202.9,262.1c0.1-0.5,0.1-0.8,0.1-1.1c0.2-5.1,0.5-10.2,0.6-15.4c0.1-7.3,0-14.6-0.1-22
			c-0.1-8.3-0.3-16.6-0.5-25c0-1.4-0.2-2.8-0.4-4.2c-0.1-0.6-0.4-1.1-0.6-1.7c-0.1,0-0.2,0.1-0.3,0.1c0,0.3-0.1,0.5-0.1,0.8
			c0.1,9.7,0.3,19.3,0.4,29c0.1,8.2,0.2,16.4,0.2,24.6c0,4.2-0.2,8.5-0.4,12.7C201.9,260.9,202.3,261.4,202.9,262.1z"/>
		<path class="st5" d="M178.3,269.1c-2.5,0-5,0-7.5,0c-0.8,2.6-0.7,10.9,0.2,12.7c0.4-0.6,0.7-1.2,1.1-1.8c0.8-1,1.9-1.2,2.9-0.3
			c0.5,0.4,0.9,1,1.3,1.5c0.6,0.8,1.2,1.6,2,2.6C178.3,278.8,178.3,274.1,178.3,269.1z"/>
		<path class="st4" d="M207.1,270.4c-1.1-1-2-1.8-2.8-2.6c-0.5-0.5-0.9-0.5-1.6-0.4c-1.8,0.4-3.5,0.7-5.3,0.8
			c-5.1,0.3-10.2,0.5-15.4,0.8c-0.3,0-0.6,0.1-1,0.1c0,1.1,0,2.1,0,3.2c0.9-0.1,1.7-0.3,2.6-0.4c6.5-0.5,13-1.1,19.6-1.1
			C204.4,270.9,205.6,270.6,207.1,270.4z"/>
		<path class="st2" d="M210.8,204.1c0.1,1.6,0.2,3,0.2,4.3c-0.1,10.2-0.2,20.5-0.4,30.7c-0.1,10.1-0.1,20.2-0.2,30.4
			c0,0.9,0.4,1.5,1.3,2.1c-0.1-9.4-0.4-18.7-0.4-28c0-8.4,0.3-16.8,0.5-25.2c0.1-3.8,0.2-7.6,0.3-11.4
			C212.2,205.9,211.7,205,210.8,204.1z"/>
		<path class="st2" d="M180.8,274.7c0.4,0.7,1,0.6,1.5,0.6c3.8,0,7.5,0,11.2-0.1c4.6-0.1,9.2-0.3,13.9-0.6c1,0,1.9-0.3,3-0.5
			c-1.7-1.3-1.7-1.2-3.7-1c-2.5,0.3-5.1,0.5-7.6,0.6c-1.3,0.1-2.6-0.1-4,0c-4.6,0.2-9.2,0.6-13.8,0.9
			C181.2,274.6,181.1,274.6,180.8,274.7z"/>
		<path class="st4" d="M167.2,271.8c0.1-1.1,0.3-2,0.4-3c-2.8,0-5.5-0.5-8.4,0.1C161.5,271.3,164.3,271.3,167.2,271.8z"/>
	</g>
	<path class="st6" d="M181,278.3c0,1.9,0,3.5,0,5.2c0,0.8-0.1,1.5-0.2,2.2c-0.3,1.4-1.3,1.9-2.5,1c-1.4-1-2.6-2.2-3.9-3.3
		c-0.2-0.2-0.4-0.5-0.8-0.9c-0.3,0.6-0.5,1.1-0.7,1.6c-0.3,0.7-0.6,1.4-0.9,2c-0.4,0.7-0.9,1.2-1.8,1.2c-0.9-0.1-1.4-0.7-1.6-1.5
		c-0.4-1.6-0.7-3.2-1-4.8c-0.2-1.1-0.3-2.2-0.4-3.2c-1.6-0.1-3.1-0.1-4.6-0.2c-3.4-0.4-6-2.2-8.4-4.3c-2.3-2.1-4.4-4.5-5.9-7.2
		c-1.4-2.6-2.5-5.4-2.5-8.5c0.1-4,0.2-7.9,0.2-11.9c0.1-8.8,0.1-17.7,0.2-26.5c0-6.4,0.1-12.8,0.2-19.2c0-1.2,0.1-2.5,0.2-3.7
		c0-0.7,0.4-1.3,0.9-1.9c1.8-2.3,4.4-2.8,7-3.1c4.6-0.6,9.3-1.1,13.9-1.6c8.2-0.8,16.5-0.8,24.7-0.7c2,0,4,0,6,0.2
		c1.2,0.1,2.5,0.6,3.6,1.1c1.2,0.6,2.1,1.7,2.3,3.1c0.3,1.6,0.4,3.2,0.5,4.8c0.1,0.6,0.2,1.1,0.8,1.4c0.3,0.1,0.6,0.4,0.9,0.6
		c0.5,0.4,0.9,0.8,1.7,0.4c0.3-0.1,0.8,0,1.1,0.1c1.8,0.9,3.2,2.2,4,4c0.4,0.9,0.5,2.1,0.4,3c-0.5,4.1-0.3,8.3-0.4,12.5
		c-0.2,5.8-0.5,11.6-0.6,17.5c-0.1,2.8,0,5.6,0.1,8.4c0.1,2.4,0.2,4.8,0.2,7.2c0.1,5.1,0.3,10.2,0.4,15.2c0,1.6-0.1,3.2-0.1,4.9
		c0,1.2-0.6,2.1-1.7,2.6c-0.8,0.4-1.5,0.7-2.3,0.9c-2.6,0.5-5.2,1-7.8,1.2c-5.9,0.3-11.8,0.4-17.7,0.5
		C183.3,278.5,182.2,278.4,181,278.3z M158.9,272.5c2.4,2,5.3,2.2,8.1,2.7c0-0.2,0.1-0.3,0-0.4s-0.2-0.2-0.4-0.2
		C164,274.3,161.4,273.7,158.9,272.5c-0.6-0.7-1.4-1.4-1.8-2.2c-1.2-2-0.4-3.8,1.9-4.1c1.6-0.2,3.2-0.2,4.9-0.1
		c6.4,0.4,12.8,0.7,19.2,0.3c4.8-0.2,9.6-0.5,14.5-0.8c1.1-0.1,2.2-0.4,3.5-0.7c-1-1-2-1.5-3.2-1.4c-7.3,0.3-14.6,0.5-22,0.8
		c-6.3,0.2-12.6,0.5-19,0.8c-1,0-1.9,0.2-2.9,0.2c-0.6,0-0.9,0.3-1.1,0.8c-0.2,0.5,0,0.9,0.3,1.2c0.7,0.8,1.4,1.7,2.2,2.4
		C156.6,270.7,157.8,271.6,158.9,272.5z M158.5,193.7c0,0.9,0,1.7,0,2.5c0,7.9,0.8,15.7,0.3,23.6c0,0.5,0,1.1,0,1.6
		c0,2.5,0.1,4.9,0.1,7.4c-0.1,5.2-0.3,10.5-0.3,15.7c0,5.4,0.1,10.8,0.2,16.1c0,0.3,0.1,0.6,0.1,1c13.6-0.5,27.1-1.1,40.8-1.6
		c-0.4-22.8-0.8-45.4-1.2-68.2C185.1,191.5,171.8,191.9,158.5,193.7z M155.6,194c-1.1,0.2-2.2,0.4-3.2,0.7c-0.7,0.2-1.3,0.6-1.9,0.9
		c-0.7,0.4-0.9,0.9-0.9,1.7c-0.1,10.5-0.1,21-0.2,31.5c0,4.2,0.1,8.5,0,12.7c-0.1,5.6-0.2,11.2-0.3,16.7c0,1.5,0.3,3,0.8,4.4
		c2.3-0.3,4.4-0.6,6.6-0.9c0-0.3,0-0.5,0-0.6c-0.1-6.1-0.3-12.2-0.3-18.2c0-5.2,0.4-10.5,0.1-15.7c-0.1-3.3,0.1-6.7,0-10
		c-0.1-7.6-0.3-15.2-0.4-22.7C155.7,194.4,155.7,194.3,155.6,194z M205.6,202.1c0,0.6,0,1,0,1.4c0.1,2.2,0.2,4.4,0.2,6.6
		c0.1,7.1,0.2,14.2,0.3,21.2c0,2.6,0,5.2,0,7.8c0,8.6,0.2,17.2-0.8,25.8c0,0.3,0,0.6,0.2,0.8c0.8,1,1.6,1.9,2.6,3c0-0.5,0-0.8,0.1-1
		c0.2-13.2,0.4-26.4,0.6-39.6c0-1.6,0-3.2,0.1-4.9c0.3-5.8,0.2-11.7-0.1-17.5c0-0.4-0.1-0.8-0.3-1
		C207.5,203.8,206.6,203.1,205.6,202.1z M202.9,262.1c0.1-0.5,0.1-0.8,0.1-1.1c0.2-5.1,0.5-10.2,0.6-15.4c0.1-7.3,0-14.6-0.1-22
		c-0.1-8.3-0.3-16.6-0.5-25c0-1.4-0.2-2.8-0.4-4.2c-0.1-0.6-0.4-1.1-0.6-1.7c-0.1,0-0.2,0.1-0.3,0.1c0,0.3-0.1,0.5-0.1,0.8
		c0.1,9.7,0.3,19.3,0.4,29c0.1,8.2,0.2,16.4,0.2,24.6c0,4.2-0.2,8.5-0.4,12.7C201.9,260.9,202.3,261.4,202.9,262.1z M178.3,269.1
		c-2.5,0-5,0-7.5,0c-0.8,2.6-0.7,10.9,0.2,12.7c0.4-0.6,0.7-1.2,1.1-1.8c0.8-1,1.9-1.2,2.9-0.3c0.5,0.4,0.9,1,1.3,1.5
		c0.6,0.8,1.2,1.6,2,2.6C178.3,278.8,178.3,274.1,178.3,269.1z M207.1,270.4c-1.1-1-2-1.8-2.8-2.6c-0.5-0.5-0.9-0.5-1.6-0.4
		c-1.8,0.4-3.5,0.7-5.3,0.8c-5.1,0.3-10.2,0.5-15.4,0.8c-0.3,0-0.6,0.1-1,0.1c0,1.1,0,2.1,0,3.2c0.9-0.1,1.7-0.3,2.6-0.4
		c6.5-0.5,13-1.1,19.6-1.1C204.4,270.9,205.6,270.6,207.1,270.4z M210.8,204.1c0.1,1.6,0.2,3,0.2,4.3c-0.1,10.2-0.2,20.5-0.4,30.7
		c-0.1,10.1-0.1,20.2-0.2,30.4c0,0.9,0.4,1.5,1.3,2.1c-0.1-9.4-0.4-18.7-0.4-28c0-8.4,0.3-16.8,0.5-25.2c0.1-3.8,0.2-7.6,0.3-11.4
		C212.2,205.9,211.7,205,210.8,204.1z M180.8,274.7c0.4,0.7,1,0.6,1.5,0.6c3.8,0,7.5,0,11.2-0.1c4.6-0.1,9.2-0.3,13.9-0.6
		c1,0,1.9-0.3,3-0.5c-1.7-1.3-1.7-1.2-3.7-1c-2.5,0.3-5.1,0.5-7.6,0.6c-1.3,0.1-2.6-0.1-4,0c-4.6,0.2-9.2,0.6-13.8,0.9
		C181.2,274.6,181.1,274.6,180.8,274.7z M167.2,271.8c0.1-1.1,0.3-2,0.4-3c-2.8,0-5.5-0.5-8.4,0.1
		C161.5,271.3,164.3,271.3,167.2,271.8z"/>
	<g>
		<path class="st6" d="M178.9,239.2c-3.7,0-6.9-2.9-7.6-6.8c-0.1-0.6-0.2-1.2-0.1-1.7c0.1-1.1,0.7-1.7,1.5-1.7s1.3,0.6,1.4,1.7
			c0.1,0.8,0.3,1.6,0.6,2.4c0.5,1.3,1.3,2.2,2.6,2.7c1.6,0.6,2.9,0.2,4.1-0.9c1.1-1,1.7-2.3,2.2-3.8c0.2-0.6,0.4-1.2,0.7-1.7
			c0.2-0.4,0.8-0.7,1.2-0.6c0.4,0.1,0.9,0.5,1.1,1c0.2,0.3,0.2,0.8,0.1,1.2c-0.5,2.6-1.6,4.8-3.6,6.5
			C182,238.7,180.4,239.2,178.9,239.2z"/>
		<path class="st6" d="M185.9,219c0-1.1,0.7-1.9,1.7-1.9s1.7,0.8,1.7,1.9c0,1.3-0.8,2.3-1.7,2.2C186.6,221.2,185.9,220.2,185.9,219z
			"/>
		<path class="st6" d="M171.7,220.3c0,0.9-0.7,1.7-1.6,1.7c-0.8,0-1.6-0.7-1.6-1.6c-0.1-0.9,0.6-1.8,1.5-1.8
			C170.9,218.6,171.7,219.4,171.7,220.3z"/>
	</g>
</g>
<text transform="matrix(1 0 0 1 221.3832 222.3526)" class="st6 st7 st8">Books</text>
<text transform="matrix(0.9611 0 0 1 240.3833 240.928)" class="st6 st7 st9">and</text>
<text transform="matrix(1 0 0 1 231.3832 267.1344)" class="st6 st7 st10">FUN</text>
</svg>
