<?xml version="1.0" encoding="utf-8"?>
<!-- Generator: Adobe Illustrator 28.1.0, SVG Export Plug-In . SVG Version: 6.00 Build 0)  -->
<svg version="1.1" id="Camada_1" xmlns="http://www.w3.org/2000/svg" xmlns:xlink="http://www.w3.org/1999/xlink" x="0px" y="0px"
	 viewBox="0 0 238.6 238.7" style="enable-background:new 0 0 238.6 238.7;" xml:space="preserve">
<style type="text/css">
	.st0{fill:#FFFFFF;}
</style>
<g>
	<path class="st0" d="M115.4,0.1C54,2.1,3.3,51.8,0.2,113.2c-1.1,22.1,3.8,43,13.3,61.2L0.2,234.1c-0.6,2.7,1.8,5.1,4.5,4.5
		l59.7-13.3l0,0c18,9.4,38.7,14.3,60.7,13.3c61.3-2.8,111.2-53.2,113.5-114.5C241.2,54.7,184.7-2.2,115.4,0.1z M119.3,214
		c-17.4,0-33.6-4.7-47.6-12.9c-1.3-0.7-2.6-1.5-3.8-2.3L29.8,209L40,170.9c-9.6-14.8-15.2-32.5-15.2-51.4
		c0-52.2,42.5-94.6,94.6-94.6S214,67.4,214,119.5S171.5,214,119.3,214z"/>
	<path class="st0" d="M175.5,161c-1.7,2.5-3.4,4.8-6.1,7.5c-6.1,6.1-14.5,9.1-23,8.3c-15.3-1.6-37-10-55.7-28.7S63.6,107.7,62,92.4
		c-0.9-8.5,2.2-17,8.3-23c2.8-2.8,5.1-4.5,7.5-6.2c4.6-3.1,10.8-1,12.5,4.2l6.3,18.8c1.7,5.2,0.9,8.4-1.3,10.6l-5,5
		c-2.5,2.5-2.9,6.3-1,9.3c2.8,4.3,8,11.3,17.5,20.8c9.6,9.6,16.5,14.8,20.8,17.5c3,1.9,6.8,1.5,9.3-1l5-5c2.2-2.2,5.4-3,10.6-1.3
		l18.8,6.3C176.5,150.2,178.6,156.4,175.5,161z"/>
	
		<image style="overflow:visible;" width="174" height="125" xlink:href="8DEA015D.jpg"  transform="matrix(1 0 0 1 24.7523 56.8072)">
	</image>
</g>
</svg>
